<?xml version="1.0" encoding="UTF-8"?><svg id="Layer_1" xmlns="http://www.w3.org/2000/svg" viewBox="0 0 207.18 55.45"><defs><style>.cls-1{fill:#a9a8a9;}.cls-2{fill:#fff;}</style></defs><path class="cls-2" d="M9,35.57s6.22-14.43,28.77-13.68l.42,8.32c-10.48-.92-17.72,1-22.05,6.82-4.6,6.19-.52,14.93-.04,15.89,0,0-16.1-6.83-16.1-25.19C0,12.42,12.42,0,27.73,0s27.73,12.42,27.73,27.73c0,14.31-10.3,26.49-24.2,27.63,0,0-6.84,1.39-8.81-7.55,0,0,2.97.63,5.56.63,11.29,0,20.44-9.15,20.44-20.44S39.29,7.56,28,7.56,7.56,16.71,7.56,28c0,4.31,1.44,7.56,1.44,7.56Z"/><path class="cls-2" d="M109.26,18.43h6.31v22.12c0,1.71-.62,3.19-1.86,4.43-1.24,1.25-2.72,1.87-4.45,1.87h-6.34c-1.73,0-3.21-.62-4.45-1.86-1.24-1.24-1.86-2.72-1.86-4.45v-22.12h6.31v22.12c0,.85.31,1.58.93,2.21.62.62,1.36.93,2.24.93s1.63-.31,2.24-.93c.62-.62.93-1.36.93-2.21v-22.12Z"/><path class="cls-2" d="M137.67,24.74h-3.14c-.28-2.11-1.27-3.17-2.99-3.17-1.11,0-1.94.27-2.5.8-.56.53-.84,1.33-.84,2.38,0,.79.31,1.53.93,2.22l6.69,7.52c1.23,1.38,1.85,2.87,1.85,4.46v1.6c0,1.71-.62,3.19-1.85,4.43-1.23,1.25-2.72,1.87-4.46,1.87h-3.17c-2.09,0-3.67-.53-4.72-1.58s-1.58-2.63-1.58-4.72h3.17c-.02.22-.03.39-.03.52,0,.86.33,1.51.99,1.95.66.44,1.39.67,2.18.67,1.13,0,1.93-.27,2.43-.81.49-.54.74-1.33.74-2.37,0-.8-.31-1.54-.93-2.22l-6.69-7.49c-1.23-1.37-1.85-2.86-1.85-4.46v-1.6c0-1.72.62-3.2,1.85-4.44,1.23-1.24,2.72-1.87,4.46-1.87h3.17c3.95,0,6.05,2.1,6.31,6.31Z"/><path class="cls-2" d="M147.14,46.87v-28.43h6.32v28.43h-6.32Z"/><path class="cls-2" d="M169.27,18.43h6.34c1.73,0,3.21.62,4.45,1.87,1.24,1.24,1.86,2.72,1.86,4.44v15.82c0,1.71-.62,3.19-1.86,4.43-1.24,1.25-2.72,1.87-4.45,1.87h-6.34c-1.73,0-3.21-.62-4.45-1.86-1.24-1.24-1.86-2.72-1.86-4.45v-15.82c0-1.73.62-3.21,1.86-4.45,1.24-1.24,2.72-1.86,4.45-1.86ZM169.27,24.74v15.82c0,.85.31,1.58.93,2.21.62.62,1.36.93,2.24.93s1.63-.31,2.24-.93c.62-.62.93-1.36.93-2.21v-15.82c0-.86-.31-1.6-.94-2.21-.63-.62-1.37-.93-2.23-.93s-1.61.31-2.24.93c-.62.62-.93,1.35-.93,2.21Z"/><path class="cls-2" d="M188.22,46.87v-7.91c0-3.71,2.1-5.81,6.31-6.31-4.21-.49-6.31-2.6-6.31-6.31v-7.91h6.31v9.48c0,.86.31,1.6.93,2.23.62.63,1.37.94,2.24.94s1.6-.31,2.23-.94c.63-.63.94-1.37.94-2.23v-9.48h6.31v7.91c0,3.71-2.1,5.81-6.31,6.31,4.21.51,6.31,2.62,6.31,6.32v7.89h-6.31v-9.48c0-.87-.31-1.61-.94-2.24-.63-.62-1.37-.93-2.23-.93s-1.61.31-2.24.93-.93,1.37-.93,2.24v9.48h-6.31Z"/><path class="cls-1" d="M197.69,32.78c-2.25,0-3.17-.14-3.17-.14-4.21-.49-6.31-2.6-6.31-6.31v-7.91h6.31v9.48c0,.87.31,1.61.93,2.24.62.62,1.37.93,2.24.93h0c.87,0,1.61-.31,2.24-.93.62-.62.93-1.37.93-2.24v-9.48s6.31,0,6.31,0v7.91c0,3.71-2.1,5.81-6.31,6.31,0,0-.92.14-3.17.14"/><path class="cls-2" d="M92.29,14.23h-6.32c-2.26.01-6.15-.18-7.3,1.15-4.06,0-7.23,3.07-7.23,6.86v24.12h7.23V13.99c0-3.54,3.21-5.41,7.18-5.41h6.44v5.65Z"/><path class="cls-1" d="M89.83,30.59h-11.16c0-3.5,2.84-5.67,6.33-5.67h4.83s0,5.67,0,5.67Z"/></svg>